# xmcd
#
# Track frame offsets:
#	150
#	21032
#	37531
#	53664
#	74851
#	98040
#	112152
#	135281
#	156572
#	179205
#	197985
#	216374
#	233229
#	250648
#	275551
#	292275
#
# Disc length: 4114 seconds
#
# Revision: 0
# Processed by: cddbd v1.5.2PL0 Copyright (c) Steve Scherf et al.
# Submitted via: EasyCDDAExtractor 16.1.1.1
#
DISCID=fa101010
DTITLE=Beyond The Black - Heart of The Hurricane
DYEAR=2018
DGENRE=Metal
TTITLE0=Hysteria
TTITLE1=Heart Of The Hurricane
TTITLE2=Trough The Mirror
TTITLE3=Million Lightyears
TTITLE4=Song For The Godless
TTITLE5=Escape From The Earth
TTITLE6=Beneath A Blackened Sky
TTITLE7=Fairytale Of Doom
TTITLE8=My God Is Dead
TTITLE9=Dear Death
TTITLE10=Scream For Me
TTITLE11=Freedom
TTITLE12=Breeze
TTITLE13=Echo From The Past
TTITLE14=Parade
TTITLE15=The Wound So Deep
EXTD=
EXTT0=
EXTT1=
EXTT2=
EXTT3=
EXTT4=
EXTT5=
EXTT6=
EXTT7=
EXTT8=
EXTT9=
EXTT10=
EXTT11=
EXTT12=
EXTT13=
EXTT14=
EXTT15=
PLAYORDER=
